    <svg style="display: none;" width="0" height="0" version="1.1" xmlns="http://www.w3.org/2000/svg" xmlns:xlink="http://www.w3.org/1999/xlink">

      <defs>

        <symbol id="icon-search" viewBox="0 0 1024 1024">
          <title>icon-search</title>
          <path fill="currentColor" class="path1 fill-color3" d="M732.41 644.111h-46.512l-16.199-16.015c57.128-66.516 91.858-152.79 91.858-247.287 0-210.102-170.523-380.38-380.809-380.38-210.347 0-380.809 170.278-380.809 380.38 0 210.040 170.462 380.318 380.809 380.318 94.619 0 180.955-34.608 247.532-91.674l16.138 16.077v46.328l292.878 292.081 87.317-87.256-292.203-292.571zM380.748 644.111c-145.611 0-263.67-117.875-263.67-263.302 0-145.488 118.059-263.363 263.67-263.363s263.609 117.875 263.609 263.363c0 145.427-117.998 263.302-263.609 263.302z"></path>
        </symbol>

        <symbol id="icon-login" viewBox="0 0 1081 1024">
          <title>icon-login</title>
          <path fill="currentColor" class="path1 fill-color3" d="M919.39 1023.245h-596.022c-89.304 0-161.684-72.435-161.684-161.738v-53.086h107.789v107.789h700.632v-808.421h-700.632v106.119h-107.789v-51.739c0-89.304 72.381-161.684 161.684-161.684h596.022c89.304 0 161.684 72.381 161.684 161.684v699.338c0 89.304-72.381 161.738-161.684 161.738zM324.662 224.094l378.718 285.642-378.718 285.642v-147.833h-324.931v-275.618h324.931v-147.833z"></path>
        </symbol>

        <symbol id="icon-basket" viewBox="0 0 1071 1024">
          <title>icon-basket</title>
          <path fill="currentColor" class="path1 fill-color3" d="M1068.504 229.996l-62.523 462.797c-9.555 47.879-53.176 84.905-97.732 84.905h-564.994c-44.608 0-88.073-37.026-97.576-84.905l-76.285-534.2c-7.582-38.012-8.153-50.683-7.114-54.786h-110.35c-28.717 0-51.93-23.213-51.93-51.93 0-28.665 23.213-51.93 51.93-51.93h207.718c28.665 0 51.93 23.264 51.93 51.93 0 26.796-20.564 48.087-46.633 50.891h725.197c57.382 0 92.071 58.732 78.362 127.228zM281.355 204.966l68.184 467.367h554.193c-0.26 0-0.208-0.156 0.208-0.727l61.589-456.357c0 0 1.454-10.282 1.61-10.282h-685.782zM376.282 828.537c53.747 0 97.316 43.621 97.316 97.368s-43.569 97.316-97.316 97.316c-53.799 0-97.368-43.569-97.368-97.316s43.569-97.368 97.368-97.368zM843.648 828.537c53.747 0 97.316 43.621 97.316 97.368s-43.569 97.316-97.316 97.316c-53.799 0-97.368-43.569-97.368-97.316s43.569-97.368 97.368-97.368z"></path>
        </symbol>

        <symbol id="icon-basket-filled" viewBox="0 0 1512 1024">
          <title>icon-basket-filled</title>
          <path fill="currentColor" class="path1 fill-color1" d="M0 0h1511.024l-137.366 1024-1261.268-12.488-112.39-1011.512z"></path>
        </symbol>

        <symbol id="icon-icecream" viewBox="0 0 1024 1024">
          <title>icon-icecream</title>
          <path class="path1" d="M511.935 1024.238c-282.908 0-512.238-229.352-512.238-512.259s229.33-512.238 512.238-512.238c282.908 0 512.259 229.33 512.259 512.238s-229.352 512.259-512.259 512.259zM511.935 42.966c-258.615 0-469.013 210.398-469.013 469.013 0 258.637 210.398 469.034 469.013 469.034s469.034-210.398 469.034-469.034c0-258.615-210.419-469.013-469.034-469.013zM677.422 674.072h-335.685c-9.661 0-17.485-7.824-17.485-17.485v-317.25c0-49.514 19.257-96.068 54.269-131.058 35.012-35.012 81.544-54.291 131.058-54.291 49.493 0 96.046 19.278 131.058 54.291 34.991 34.991 54.269 81.544 54.269 131.058v317.25c0 9.661-7.824 17.485-17.485 17.485zM659.938 428.77c-13.702-4.625-22.304-14.178-29.069-21.699-7.997-8.861-11.908-12.816-20.445-12.859-0.497 0.303-2.961 1.988-6.678 9.229-3.739 7.262-7.197 17.031-10.547 26.497-4.409 12.427-8.969 25.265-15.064 35.617-9.185 15.518-20.943 23.385-34.991 23.385s-25.805-7.867-34.991-23.385c-6.095-10.352-10.655-23.19-15.064-35.617-3.35-9.466-6.808-19.235-10.547-26.497-3.717-7.219-6.16-8.926-6.678-9.229-8.537 0.043-12.449 3.998-20.424 12.859-9.293 10.309-22.002 24.444-46.575 24.444s-37.282-14.135-46.575-24.444c-1.102-1.232-2.118-2.334-3.069-3.372v235.403h300.716v-210.333zM553.863 824.538c0 24.465-19.819 44.284-44.284 44.284s-44.284-19.819-44.284-44.284v-133.219h88.568v133.219z"></path>
        </symbol>

        <symbol id="icon-thermometer" viewBox="0 0 1025 1024">
          <title>icon-thermometer</title>
          <path class="path1" d="M512.519 1024.238c-282.908 0-512.238-229.352-512.238-512.259s229.33-512.238 512.238-512.238c282.886 0 512.259 229.33 512.259 512.238s-229.373 512.259-512.259 512.259zM512.519 42.966c-258.615 0-469.013 210.398-469.013 469.013 0 258.637 210.398 469.034 469.013 469.034s469.034-210.398 469.034-469.034c0-258.615-210.419-469.013-469.034-469.013zM767.914 544.419h-86.45c-11.93 0-21.612-9.682-21.612-21.634 0-11.93 9.682-21.612 21.612-21.612h86.45c11.93 0 21.612 9.682 21.612 21.612 0 11.952-9.682 21.634-21.612 21.634zM767.914 457.947h-86.45c-11.93 0-21.612-9.661-21.612-21.612 0-11.93 9.682-21.612 21.612-21.612h86.45c11.93 0 21.612 9.682 21.612 21.612 0 11.952-9.682 21.612-21.612 21.612zM767.914 371.497h-86.45c-11.93 0-21.612-9.661-21.612-21.612 0-11.93 9.682-21.591 21.612-21.591h86.45c11.93 0 21.612 9.661 21.612 21.591 0 11.952-9.682 21.612-21.612 21.612zM767.914 285.047h-86.45c-11.93 0-21.612-9.661-21.612-21.591 0-11.952 9.682-21.634 21.612-21.634h86.45c11.93 0 21.612 9.682 21.612 21.634 0 11.93-9.682 21.591-21.612 21.591zM509.061 832.578c-81.047 0-147.462-65.68-147.462-146.403 0-34.969 17.765-70.932 39.378-99.482v-320.751c0-58.98 48.498-106.96 108.062-106.96 59.586 0 108.062 47.98 108.062 106.96v322.264c21.612 27.75 38.427 62.525 38.427 97.969 0 80.723-65.443 146.403-146.468 146.403zM574.871 605.885v-339.943c0-35.12-29.696-63.735-64.837-63.735s-64.837 28.615-64.837 63.735v338.56c-21.612 19.105-39.875 49.082-39.875 81.674 0 56.906 46.877 103.178 103.74 103.178 56.906 0 103.718-46.272 103.718-103.178 0-31.986-16.296-61.099-37.908-80.29zM507.591 743.081c-33.11 0-59.953-26.843-59.953-59.953 0-26.259 16.987-48.326 40.48-56.43v-363.781c0-11.325 9.185-20.51 20.51-20.51s20.51 9.185 20.51 20.51v364.408c22.434 8.688 38.405 30.322 38.405 55.803 0 33.11-26.843 59.953-59.953 59.953z"></path>
        </symbol>

        <symbol id="icon-leaf" viewBox="0 0 1024 1024">
          <title>icon-leaf</title>
          <path class="path1" d="M511.935 1024.238c-282.908 0-512.238-229.352-512.238-512.259s229.33-512.238 512.238-512.238c282.908 0 512.259 229.33 512.259 512.238s-229.352 512.259-512.259 512.259zM511.935 42.966c-258.615 0-469.013 210.398-469.013 469.013 0 258.637 210.398 469.034 469.013 469.034s469.034-210.398 469.034-469.034c0-258.615-210.419-469.013-469.034-469.013zM510.595 860.501c0 0-480.662-220.188 0-707.809 480.662 487.621 0 707.809 0 707.809zM488.075 241.347c-28.183 32.57-52.41 64.427-72.532 95.506l72.532 56.798v-152.303zM488.075 446.644l-95.095-73.029c-13.227 23.882-23.406 47.158-31.641 70.046l126.736 81.566v-78.583zM488.075 576.643l-139.444-89.757c-5.511 24.271-8.71 48.066-8.234 71.105l147.678 96.91v-78.259zM488.075 706.318l-138.687-89.281c23.903 89.541 93.301 149.688 138.687 180.162v-90.881zM531.3 239.25v160.278l78.453-56.149c-21.353-33.802-47.504-68.512-78.453-104.129zM631.668 380.553l-99.915 68.771-0.454 79.534 129.264-83.208c-7.543-21.288-17.009-42.966-28.896-65.097zM673.013 489.026l-141.259 89.951-0.454 79.556 148.997-95.268c0.994-24.011-1.686-48.823-7.283-74.239zM531.754 708.652l-0.454 90.016c44.759-29.544 114.676-88.979 139.703-178.627l-139.249 88.611z"></path>
        </symbol>

        <symbol id="icon-cow" viewBox="0 0 1025 1024">
          <title>icon-cow</title>
          <path class="path1" d="M845.243 501.129c9.229-13.962 10.482-31.381 3.501-47.85-17.571-41.323-77.654-59.283-102.659-65.097l-6.354-1.47c30.927-62.611 16.253-165.119 4.841-199.678l-66.091 5.49c-1.189 21.677-16.534 62.266-74.239 108.279l-36.568 25.179c-15.539-2.766-31.792-4.69-49.471-4.69-18.587 0-35.574 2.096-51.805 5.144l-34.256-23.622c-57.705-46.013-73.050-86.58-74.261-108.257l-66.069-5.49c-11.368 34.364-25.978 135.943 4.258 198.64l-2.075 0.475c-25.006 5.814-85.11 23.774-102.659 65.097-6.981 16.469-5.706 33.888 3.501 47.85 5.598 8.429 18.997 22.628 45.97 22.628 18.090 0 44.219-7.283 66.242-16.404-4.884 56.906 7.413 121.959 38.6 188.547-7.046 17.852-9.812 36.957-7.132 56.56 9.985 73.18 91.615 113.228 183.274 113.228s173.678-40.048 184.225-113.228c3.35-23.32-0.973-45.927-11.174-66.523 28.161-63.8 39.011-125.85 34.061-180.335 22.801 9.942 51.135 18.154 70.37 18.154 26.972 0 40.372-14.199 45.97-22.628zM303.439 430.305c2.55 12.125 3.199 14.696 10.223 24.919-14.696 12.125-93.733 40.523-82.884 14.956 10.871-25.546 72.661-39.875 72.661-39.875zM374.696 431.774c27.967-43.981 77.589-67.258 143.507-67.258 65.097 0 114.33 22.758 142.361 65.788 37.303 57.23 35.315 146.273-5.273 238.148l-8.17 18.522 8.991 18.154c6.721 13.529 9.099 27.405 7.132 41.172-7.543 52.324-78.626 76.162-141.454 76.162-62.655 0-133.327-23.731-140.438-75.838-1.578-11.541-0.065-23.277 4.495-34.818l6.873-17.355-7.932-16.879c-44.198-94.36-47.958-186.256-10.093-245.799zM808.956 470.18c10.871 25.568-68.166-2.831-82.884-14.977 7.046-10.223 7.694-12.773 10.244-24.919 0 0 61.769 14.329 72.64 39.897zM407.612 338.408c-29.609 12.168-51.567 35.553-65.486 42.533-27.859-29.588-23.968-103.913-15.237-150.92 3.026 54.853 80.723 108.387 80.723 108.387zM628.751 336.377c29.631 12.189 51.567 35.574 65.507 42.533 27.859-29.588 23.947-103.913 15.237-150.92-3.047 54.874-80.744 108.387-80.744 108.387zM512.519-0.259c-282.908 0-512.238 229.33-512.238 512.238s229.33 512.259 512.238 512.259c282.886 0 512.259-229.352 512.259-512.259s-229.373-512.238-512.259-512.238zM512.519 981.013c-258.615 0-469.013-210.398-469.013-469.034 0-258.615 210.398-469.013 469.013-469.013s469.034 210.398 469.034 469.013c0 258.637-210.419 469.034-469.034 469.034z"></path>
        </symbol>

        <symbol id="icon-arrow-right" viewBox="0 0 619 1024">
          <title>icon-arrow-right</title>
            <path fill="currentColor" class="path1" d="M514.394 617.841l-0.15-0.224-407.431 407.431-105.841-105.766 407.431-407.431-406.907-406.907 105.766-105.766 512.972 512.898-105.841 105.766z"></path>
        </symbol>

        <symbol id="icon-arrow-left" viewBox="0 0 618 1024">
          <title>icon-arrow-left</title>
            <path fill="currentColor" class="path1" d="M617.012 105.236l-406.54 406.54 406.017 406.017-105.535 105.535-511.776-511.776 105.535-105.535 0.224 0.149 406.54-406.465 105.535 105.535z"></path>
        </symbol>

        <symbol id="icon-vk" viewBox="0 0 1023 1024">
          <title>icon-vk</title>
          <path fill="currentColor" class="path1 fill-color2" d="M511.087 1023.381c-282.521 0-511.576-229.023-511.576-511.544 0-282.554 229.055-511.576 511.576-511.576s511.544 229.023 511.544 511.576c0 282.521-229.023 511.544-511.544 511.544zM680.939 523.476c-16.431-17.8-38.404-29.504-65.724-35.274v-2.347c19.006-8.020 33.938-20.408 44.696-37.296 10.856-16.855 16.268-36.057 16.268-57.704 0-18.713-3.977-35.177-11.802-49.488-7.824-14.214-19.724-25.722-35.568-34.264-14.638-7.922-30.352-13.106-47.141-15.518-16.757-2.543-41.469-3.749-73.972-3.749h-156.583v443.244h177.415c30.775 0 56.074-2.771 75.993-8.346 20.050-5.607 38.339-14.866 54.965-27.939 14.149-10.987 25.331-24.679 33.644-41.338 8.346-16.724 12.519-36.089 12.519-58.16 0-30.091-8.248-54.020-24.712-71.82zM561.847 641.165c-11.476 4.955-22.853 7.596-33.905 7.987-11.117 0.424-31.134 0.619-60.084 0.619h-5.999v-110.974h20.539c19.821 0 35.666 0.098 47.467 0.424 11.769 0.261 21.093 1.695 27.809 4.369 11.084 3.945 19.43 9.748 25.005 17.572 5.607 7.726 8.313 18.387 8.313 32.112 0 10.661-2.315 20.245-6.977 28.656-4.695 8.444-11.997 14.801-22.169 19.235zM539.613 456.089c-8.15 3.749-16.072 5.803-23.668 6.194-7.661 0.424-21.060 0.619-40.067 0.619h-14.018v-93.793h7.726c19.821 0 34.753 0.098 44.826 0.391 10.041 0.326 18.68 2.021 25.983 5.314 7.857 3.325 13.529 8.835 17.181 16.333 3.684 7.531 5.51 14.866 5.51 22.071 0 9.65-1.76 18.191-5.118 25.624-3.325 7.27-9.52 13.073-18.354 17.246z"></path>
        </symbol>

        <symbol id="icon-twitter" viewBox="0 0 1023 1024">
          <title>icon-twitter</title>
          <path fill="currentColor" class="path1 fill-color2" d="M511.25 1023.641c-282.611 0-511.706-229.128-511.706-511.739s229.096-511.739 511.706-511.739c282.644 0 511.739 229.128 511.739 511.739s-229.096 511.739-511.739 511.739zM793.241 305.7c-22.926 13.632-48.363 23.513-75.43 28.829-21.654-23.089-52.537-37.503-86.681-37.503-65.614 0-118.804 53.189-118.804 118.771 0 9.294 1.076 18.36 3.098 27.068-98.715-4.957-186.244-52.244-244.847-124.119-10.207 17.545-16.077 37.96-16.077 59.744 0 41.188 20.969 77.55 52.863 98.845-19.469-0.62-37.797-5.968-53.809-14.838 0 0.489 0 0.978 0 1.5 0 57.527 40.927 105.531 95.258 116.456-9.946 2.707-20.447 4.142-31.274 4.142-7.664 0-15.099-0.717-22.371-2.12 15.132 47.221 58.994 81.561 110.977 82.474-40.666 31.894-91.866 50.874-147.534 50.874-9.588 0-19.045-0.554-28.307-1.663 52.537 33.72 114.988 53.352 182.070 53.352 218.464 0 337.953-180.994 337.953-337.953 0-5.153-0.13-10.273-0.359-15.36 23.219-16.73 43.341-37.666 59.288-61.473-21.295 9.425-44.189 15.817-68.223 18.686 24.524-14.675 43.341-37.992 52.211-65.712z"></path>
        </symbol>

        <symbol id="icon-inst" viewBox="0 0 1023 1024">
          <title>icon-inst</title>
          <path fill="currentColor" class="path1 fill-color2" d="M511.087 1023.381c-282.521 0-511.544-229.023-511.544-511.544 0-282.554 229.023-511.576 511.544-511.576 282.554 0 511.576 229.023 511.576 511.576 0 282.521-229.023 511.544-511.576 511.544zM772.45 311.732c0-31.395-25.494-56.889-56.889-56.889h-401.906c-31.395 0-56.889 25.494-56.889 56.889v401.352c0 31.427 25.461 56.889 56.889 56.889h401.906c31.395 0 56.889-25.461 56.889-56.889v-401.352zM696.75 413.48h-60.768c-11.019 0-19.952-8.933-19.952-19.919v-60.801c0-11.019 8.933-19.919 19.952-19.919h60.768c11.019 0 19.952 8.9 19.952 19.919v60.801c0 10.987-8.933 19.919-19.952 19.919zM515.423 606.022c-51.118 0-92.522-41.436-92.522-92.554s41.403-92.522 92.522-92.522c51.118 0 99.955 37.296 99.955 92.522 0 55.194-48.836 92.554-99.955 92.554zM515.391 674.060c88.61 0 160.463-71.82 160.463-160.43 0-13.921-1.793-27.483-5.118-40.36 28.787 0.065 44.957 0 44.957 0v221.231c0 10.987-8.9 19.919-19.919 19.919h-360.731c-11.019 0-19.952-8.933-19.952-19.919v-221.231c0 0 9.128 0 44.989 0-3.325 12.91-5.118 26.439-5.118 40.36 0 88.61 71.82 160.43 160.43 160.43z"></path>
        </symbol>

        <symbol id="icon-fb" viewBox="0 0 1023 1024">
          <title>icon-fb</title>
          <path fill="currentColor" class="path1 fill-color2" d="M511.087 1023.381c-282.554 0-511.576-229.023-511.576-511.544 0-282.554 229.023-511.576 511.576-511.576 282.521 0 511.544 229.023 511.544 511.576 0 282.521-229.023 511.544-511.544 511.544zM638.525 198.084h-91.022c-107.388 0-133.078 50.401-133.078 141.587v71.657h-61.583v100.705h61.583v302.929h121.863v-302.929h89.425l9.291-100.705h-98.716l0.163-60.508c0-29.145 2.771-40.947 44.566-40.947h57.508v-111.789z"></path>
        </symbol>

        <symbol id="icon-heart" viewBox="0 0 1178 1024">
          <title>icon-heart</title>
          <path fill="#f7f8f8" class="path1 fill-color1" d="M590.458 1023.434v1.537c0 0-1.294-0.647-1.537-0.728-0.243 0.081-1.537 0.728-1.537 0.728v-1.537c-32.273-16.258-586.171-300.487-586.171-663.659 0-412.593 439.77-479.080 587.708-142.681 147.857-336.399 587.708-269.912 587.708 142.681 0 363.172-553.898 647.401-586.171 663.659z"></path>
        </symbol>

      </defs>

    </svg>